<?xml version="1.0" encoding="UTF-8" standalone="no"?>
<!DOCTYPE svg PUBLIC "-//W3C//DTD SVG 1.1//EN" "http://www.w3.org/Graphics/SVG/1.1/DTD/svg11.dtd">
<!-- Created with Vectornator (http://vectornator.io/) -->
<svg height="250.0px" stroke-miterlimit="10" style="fill-rule:nonzero;clip-rule:evenodd;stroke-linecap:round;stroke-linejoin:round;" version="1.1" viewBox="0 0 250 250" width="250.0px" xml:space="preserve" xmlns="http://www.w3.org/2000/svg" xmlns:xlink="http://www.w3.org/1999/xlink">
<defs>
<path d="M11.4955 125C11.4955 62.3132 62.3132 11.4955 125 11.4955C187.687 11.4955 238.505 62.3132 238.505 125C238.505 187.687 187.687 238.505 125 238.505C62.3132 238.505 11.4955 187.687 11.4955 125Z" id="Fill"/>
</defs>
<g id="Layer-1">
<g opacity="1">
<use fill="#304c79" fill-rule="nonzero" opacity="1" stroke="none" xlink:href="#Fill"/>
<clipPath clip-rule="nonzero" id="ClipPath">
<use xlink:href="#Fill"/>
</clipPath>
<g clip-path="url(#ClipPath)">
<path d="M34.876 227.929C34.876 160.635 89.4282 106.083 156.722 106.083C224.015 106.083 278.567 160.635 278.567 227.929C278.567 295.222 224.015 349.774 156.722 349.774C89.4282 349.774 34.876 295.222 34.876 227.929Z" fill="#e06237" fill-rule="nonzero" opacity="1" stroke="none"/>
<path d="M105.378 211.495C105.378 163.725 144.103 125 191.874 125C239.644 125 278.369 163.725 278.369 211.495C278.369 259.266 239.644 297.991 191.874 297.991C144.103 297.991 105.378 259.266 105.378 211.495Z" fill="#d7aa61" fill-rule="nonzero" opacity="1" stroke="none"/>
</g>
</g>
<path d="M125 186.901L111.373 138.627L63.0986 125L111.373 111.373L125 63.0986L138.627 111.373L186.901 125L138.627 138.627L125 186.901Z" fill="#f5f6f6" fill-rule="nonzero" opacity="1" stroke="none"/>
<path d="M105.378 186.901L84.2384 175.069L63.0986 186.901L74.931 165.762L63.0986 144.622L84.2384 156.454L105.378 144.622L93.5457 165.762L105.378 186.901Z" fill="#f5f6f6" fill-rule="nonzero" opacity="1" stroke="none"/>
<path d="M144.622 186.901L156.454 165.762L144.622 144.622L165.762 156.454L186.901 144.622L175.069 165.762L186.901 186.901L165.762 175.069L144.622 186.901Z" fill="#f5f6f6" fill-rule="nonzero" opacity="1" stroke="none"/>
</g>
</svg>
