<?xml version="1.0" encoding="UTF-8" standalone="no"?>
<!DOCTYPE svg PUBLIC "-//W3C//DTD SVG 1.1//EN" "http://www.w3.org/Graphics/SVG/1.1/DTD/svg11.dtd">
<!-- Created with Vectornator (http://vectornator.io/) -->
<svg height="250.0px" stroke-miterlimit="10" style="fill-rule:nonzero;clip-rule:evenodd;stroke-linecap:round;stroke-linejoin:round;" version="1.1" viewBox="0 0 250 250" width="250.0px" xml:space="preserve" xmlns="http://www.w3.org/2000/svg" xmlns:xlink="http://www.w3.org/1999/xlink">
<defs>
<path d="M11.4955 125C11.4955 62.3132 62.3132 11.4955 125 11.4955C187.687 11.4955 238.505 62.3132 238.505 125C238.505 187.687 187.687 238.505 125 238.505C62.3132 238.505 11.4955 187.687 11.4955 125Z" id="Fill"/>
</defs>
<g id="Layer-1">
<g opacity="1">
<use fill="#304c79" fill-rule="nonzero" opacity="1" stroke="none" xlink:href="#Fill"/>
<clipPath clip-rule="nonzero" id="ClipPath">
<use xlink:href="#Fill"/>
</clipPath>
<g clip-path="url(#ClipPath)">
<path d="M22.7761 287.607C22.7761 220.314 77.3283 165.762 144.622 165.762C211.915 165.762 266.468 220.314 266.468 287.607C266.468 354.901 211.915 409.453 144.622 409.453C77.3283 409.453 22.7761 354.901 22.7761 287.607Z" fill="#e06237" fill-rule="nonzero" opacity="1" stroke="none"/>
<path d="M77.0091 264.095C77.0091 216.325 115.734 177.599 163.505 177.599C211.275 177.599 250 216.325 250 264.095C250 311.865 211.275 350.59 163.505 350.59C115.734 350.59 77.0091 311.865 77.0091 264.095Z" fill="#d7aa61" fill-rule="nonzero" opacity="1" stroke="none"/>
</g>
</g>
<path d="M125 155.217L111.373 106.942L63.0986 93.3152L111.373 79.6883L125 31.4138L138.627 79.6883L186.901 93.3152L138.627 106.942L125 155.217Z" fill="#f5f6f6" fill-rule="nonzero" opacity="1" stroke="none"/>
<path d="M105.378 155.217L84.2384 143.384L63.0986 155.217L74.931 134.077L63.0986 112.937L84.2384 124.769L105.378 112.937L93.5457 134.077L105.378 155.217Z" fill="#f5f6f6" fill-rule="nonzero" opacity="1" stroke="none"/>
<path d="M41.9588 144.236L39.7224 136.313L31.8 134.077L39.7224 131.841L41.9588 123.918L44.1951 131.841L52.1176 134.077L44.1951 136.313L41.9588 144.236Z" fill="#f5f6f6" fill-rule="nonzero" opacity="1" stroke="none"/>
<path d="M207.882 144.236L205.646 136.313L197.724 134.077L205.646 131.841L207.882 123.918L210.119 131.841L218.041 134.077L210.119 136.313L207.882 144.236Z" fill="#f5f6f6" fill-rule="nonzero" opacity="1" stroke="none"/>
<path d="M144.622 155.217L156.454 134.077L144.622 112.937L165.762 124.769L186.901 112.937L175.069 134.077L186.901 155.217L165.762 143.384L144.622 155.217Z" fill="#f5f6f6" fill-rule="nonzero" opacity="1" stroke="none"/>
</g>
</svg>
